<?xml version="1.0" standalone="no"?>
<!DOCTYPE svg PUBLIC "-//W3C//DTD SVG 20010904//EN"
 "http://www.w3.org/TR/2001/REC-SVG-20010904/DTD/svg10.dtd">
<svg version="1.0" xmlns="http://www.w3.org/2000/svg"
 width="200.000000pt" height="200.000000pt" viewBox="0 0 200.000000 200.000000"
 preserveAspectRatio="xMidYMid meet">
<metadata>
Created by potrace 1.14, written by Peter Selinger 2001-2017
</metadata>
<g transform="translate(0.000000,200.000000) scale(0.100000,-0.100000)"
fill="#000000" stroke="none">
<path d="M890 1890 c-111 -21 -197 -67 -261 -138 -99 -110 -139 -234 -139
-428 l0 -122 68 0 c38 0 82 -6 103 -15 l37 -15 3 156 c4 148 6 160 32 214 48
99 124 138 266 138 108 0 167 -19 219 -70 35 -34 51 -64 78 -153 7 -23 20 -33
64 -48 30 -11 76 -32 103 -49 l47 -29 0 58 c0 74 -32 198 -67 263 -85 156
-219 235 -413 243 -52 2 -115 0 -140 -5z"/>
<path d="M342 896 c-87 -28 -155 -94 -193 -186 -10 -25 -14 -78 -14 -185 0
-144 1 -152 28 -207 32 -64 80 -111 146 -142 41 -19 64 -21 226 -21 176 0 181
1 231 27 59 31 108 84 138 147 18 41 21 64 21 201 0 145 -2 158 -25 205 -31
63 -83 115 -146 146 -45 22 -63 24 -209 26 -116 2 -172 -1 -203 -11z m363
-146 c27 -13 49 -34 64 -60 21 -37 22 -51 19 -170 -3 -140 -10 -158 -72 -204
-25 -19 -42 -21 -186 -21 l-158 0 -39 31 c-54 44 -65 85 -61 225 3 110 5 118
32 153 43 57 72 65 225 66 115 0 141 -3 176 -20z"/>
<path d="M1158 870 c-20 -11 -50 -36 -65 -57 l-28 -36 -8 -299 c-5 -164 -6
-305 -3 -313 4 -11 22 -15 71 -15 l65 0 0 285 c0 363 -22 330 219 321 196 -7
216 -14 238 -77 28 -79 7 -165 -47 -191 -29 -15 -63 -18 -198 -18 l-163 0 3
-67 3 -68 185 0 c181 0 186 1 235 26 57 31 75 48 103 104 67 134 18 330 -98
395 -44 24 -51 25 -260 27 -198 3 -218 1 -252 -17z"/>
</g>
</svg>
